<svg xmlns="http://www.w3.org/2000/svg" height="800" width="600" version="1.1" xmlns:xlink="http://www.w3.org/1999/xlink">

<defs>
<path id="clear-day" d="M47.812,0v17.062h4.469v-17.062h-4.469zm-19.718,4.875l-3.782,2.375,9,14.438,3.782-2.344-9-14.469zm44.187,0.4375l-8.25,14.906,3.938,2.187,8.219-14.906-3.907-2.1875zm-63.625,16.25l-2.1874,3.938,14.843,8.25,2.188-3.906-14.844-8.282zm41.406,0.657c-15.25,0-27.624,12.417-27.624,27.719,0,15.3,12.374,27.721,27.624,27.718,15.24,0,27.594-12.416,27.594-27.718s-12.356-27.719-27.594-27.719zm41.75,0.531l-14.718,8.531,2.218,3.907,14.719-8.532-2.219-3.906zm-91.812,23.688v4.468h17v-4.468h-17zm83,0.25v4.5h17v-4.5h-17zm-63.594,15.687l-14.406,9.031,2.3438,3.813,14.406-9.063-2.344-3.781zm60.5,0.969l-2.187,3.906,14.875,8.281,2.187-3.937-14.875-8.25zm-11.312,13.625l-3.875,2.219,8.5,14.781,3.875-2.25-8.5-14.75zm-37.156,0.093l-8.25,14.938,3.906,2.156,8.25-14.937-3.906-2.157zm16.093,5.876v17.062h4.469v-17.062h-4.469z"/>
<path id="clear-night" d="M47.812,0v17.062h4.469v-17.062h-4.469zm-19.718,4.875l-3.782,2.375,9,14.438,3.782-2.344-9-14.469zm44.187,0.4375l-8.25,14.906,3.938,2.187,8.219-14.906-3.907-2.1875zm-63.625,16.25l-2.1874,3.938,14.843,8.25,2.188-3.906-14.844-8.282zm41.406,0.657c-15.25,0-27.624,12.417-27.624,27.719,0,15.3,12.374,27.721,27.624,27.718,15.24,0,27.594-12.416,27.594-27.718s-12.356-27.719-27.594-27.719zm41.75,0.531l-14.718,8.531,2.218,3.907,14.719-8.532-2.219-3.906zm-91.812,23.688v4.468h17v-4.468h-17zm83,0.25v4.5h17v-4.5h-17zm-63.594,15.687l-14.406,9.031,2.3438,3.813,14.406-9.063-2.344-3.781zm60.5,0.969l-2.187,3.906,14.875,8.281,2.187-3.937-14.875-8.25zm-11.312,13.625l-3.875,2.219,8.5,14.781,3.875-2.25-8.5-14.75zm-37.156,0.093l-8.25,14.938,3.906,2.156,8.25-14.937-3.906-2.157zm16.093,5.876v17.062h4.469v-17.062h-4.469z"/>
<path id="rain" d="M51.312,6.0312c-13.094,0-23.718,10.6-23.718,23.688,0,0.296,0.08,0.579,0.094,0.875-0.296-0.02-0.58-0.094-0.876-0.094-7.044,0-12.75,5.705-12.75,12.75,0,0.087,0.032,0.194,0.032,0.281-1.008-0.302-2.054-0.531-3.156-0.531-6.0435,0-10.938,4.9-10.938,10.938,0,6.042,4.8945,8.343,10.938,8.343h34.374,18.719,17.219c10.358,0,18.75-8.391,18.75-18.75s-8.391-18.75-18.75-18.75c-2.34,0-4.568,0.47-6.625,1.25-1.788-11.321-11.495-20-23.313-20zm-27.843,62.438l-9.031,24.781,1.937,0.719,9.313-25.5h-2.219zm10.343,0l-9.031,24.781,1.938,0.719,9.281-25.5h-2.188zm10.313,0l-9.031,24.781,1.937,0.719,9.281-25.5h-2.187zm10.344,0l-9.031,24.781,1.937,0.719,9.281-25.5h-2.187zm10.312,0l-9.031,24.781,1.938,0.719,9.281-25.5h-2.188zm10.313,0l-9,24.781,1.937,0.719,9.281-25.5h-2.218z"/>
<path id="snow" d="m42.732,50.287,3.955,5.841,7.365,0,3.398-5.841-3.58-6.22-7.379,0zm3.033,46.974,0-13.207-7.379,4.15-3.759-2.152,0-4.653,10.943-6.22,0-8.68-7.939,5.102,0-9.196-7.589,4.374,0,12.468-4.151,2.572-3.508-2.321,0-8.356-11.518,6.498-4.919-2.07,0-5.27,12.089-6.609-7.561-3.801,0-4.822,4.291-2.349,10.845,6.386,7.533-4.346-0.182-0.139-7.701-4.417,7.477-4.64-7.505-4.346-10.844,6.372-4.068-2.026,0-4.808,7.339-4.123-11.713-6.36,0-5.269,4.5-2.319,11.544,6.666,0-8.497,3.48-2.348,4.264,2.46-0.028,12.718,7.756,4.43-0.027-8.986,8.134,4.375,0-8.68-10.943-6.233,0-4.612,3.759-2.18,7.379,4.151,0-13.18,4.222-2.768,4.261,2.768,0,13.18,7.646-4.235,3.845,2.544,0,4.151-11.322,6.414,0,8.68,7.744-4.724,0,9.448,7.979-4.348,0-13.598,3.844-1.789,4.038,1.789,0,8.694,11.879-6.416,4.153,2.53,0,4.919-11.601,6.597,7.254,4.066,0,4.697-3.76,2.083-11.138-6.583-7.702,4.892,7.449,4.642-7.673,4.416,7.926,4.15,11.138-6.221,3.578,2.53,0,4.487-6.988,3.927,11.126,6.61,0,5.188-4.71,2.152-10.931-6.221,0,8.232-3.927,2.194-3.843-2.194,0-12.496-8.092-4.611,0,8.68-7.744-4.725,0,8.68,10.944,6.22,0,4.92-3.776,1.886-7.337-4.15,0,13.207-4.26,2.738z"/>
<path id="sleet" d="M25.5,2l-2.25,1.4688v7.0312l-3.938-2.1875-2,1.1563v2.4692l5.844,3.312v4.625l-4.344-2.313v4.782l-4.124-2.375v-6.781l-2.25-1.313-1.876,1.25v4.531l-6.1558-3.531-2.4062,1.219v2.812l6.25,3.406-3.9062,2.188v2.562l2.1562,1.094,5.781-3.406,4.031,2.312-4,2.5,4.126,2.344,0.093,0.094-4.031,2.312-5.7812-3.406-2.3126,1.25v2.563l4.0626,2.031-6.4688,3.531v2.813l2.625,1.094,6.156-3.469v4.469l1.875,1.25,2.219-1.376v-6.656l4.031-2.344v4.907l4.25-2.719v4.625l-5.844,3.344v2.469l2,1.156,3.938-2.219v7.063l2.25,1.437,2.281-1.437v-7.063l3.938,2.219,2-1v-2.625l-5.844-3.344v-4.625l4.125,2.531v-4.625l4.344,2.438v6.687l2.031,1.157,2.094-1.157v-4.406l5.843,3.313,2.532-1.126v-2.781l-5.938-3.531,3.719-2.094v-2.406l-1.906-1.344-5.969,3.313-4.219-2.188,4.094-2.375-3.969-2.468,4.094-2.626,5.969,3.532,2-1.125v-2.5l-3.875-2.188,6.187-3.5v-2.625l-2.219-1.375-6.343,3.438v-4.657l-2.157-0.937-2.031,0.937v7.282l-4.281,2.312v-5.031l-4.125,2.5v-4.625l6.063-3.438v-2.187l-2.063-1.375-4.094,2.25v-7.0312l-2.281-1.4688zm68.438,1.9375l-90,90,2.125,2.124,90-90-2.124-2.125zm-70.282,21.594h3.938l1.906,3.313-1.812,3.125h-3.938l-2.125-3.125,2.031-3.313zm44.438,16.438c-8.046,0-14.563,6.521-14.563,14.562,0,0.182,0.024,0.35,0.031,0.531-0.181-0.012-0.349-0.062-0.531-0.062-4.328,0-7.843,3.515-7.843,7.844,0,0.053,0.031,0.103,0.031,0.156-0.62-0.186-1.26-0.312-1.938-0.312-3.713,0-6.719,3.009-6.719,6.718,0,3.713,3.006,5.125,6.719,5.125h43.188c6.364-0.002,11.531-5.166,11.531-11.531,0-6.364-5.167-11.5-11.531-11.5-1.438,0-2.799,0.271-4.063,0.75-1.098-6.956-7.051-12.281-14.312-12.281zm-17.094,38.343l-5.562,15.25,1.187,0.438,5.719-15.688h-1.344zm6.344,0l-5.563,15.25,1.188,0.438,5.719-15.688h-1.344zm6.344,0l-5.563,15.25,1.187,0.438,5.719-15.688h-1.343zm6.343,0l-5.562,15.25,1.187,0.438,5.719-15.688h-1.344zm6.344,0l-5.563,15.25,1.188,0.438,5.719-15.688h-1.344zm6.344,0l-5.563,15.25,1.188,0.438,5.718-15.688h-1.343z"/>
<path id="wind" d="M62.781,0.0062768c-1.621,0.18889-7.737,6.4392-19.093,25.311,3.0187,0.032,5.663,1.6919,7.0938,4.1247,11.41-20.557,13.346-28.772,12.25-29.404-0.0685-0.039435-0.14194-0.043841-0.25-0.031248zm-19.187,29.467c-2.2942,0-4.1562,1.8647-4.1562,4.156s1.862,4.156,4.1562,4.156,4.1562-1.8647,4.1562-4.156-1.862-4.156-4.1562-4.156zm-7.2188,0.0625c-23.477,0.41497-31.531,2.8316-31.531,4.0935,0,1.2609,8.0532,3.6795,31.531,4.0935-0.68785-1.2069-1.0938-2.6066-1.0938-4.0935,0-1.4859,0.40594-2.8856,1.0938-4.0935zm14.406,8.2495c-1.4238,2.4358-4.0448,4.0887-7.0625,4.1247,12.105,20.107,18.216,25.878,19.312,25.248,1.0943-0.63196-0.84705-8.8283-12.25-29.373zm-50.468,2.062c-0.063218-0.0073-0.11601,0.0082-0.15625,0.03125-0.6438,0.373,0.50625,5.156,7.0312,16.999,0.9162-1.38,2.4383-2.304,4.1875-2.438-6.5661-10.832-10.114-14.483-11.062-14.592zm65.062,0c-0.06321-0.0073-0.11601,0.0082-0.15625,0.03125-0.643,0.37298,0.50625,5.1567,7.0312,16.999,0.9172-1.3799,2.4393-2.3034,4.1875-2.4373-6.566-10.833-10.113-14.484-11.061-14.593zm-25.938,3.0311,0,57.121,8.3125,0,0-43.935c-2.379-3.518-5.134-7.856-8.31-13.186zm-27.655,14.28c-1.5295,0-2.75,1.2223-2.75,2.7498s1.2205,2.7811,2.75,2.7811,2.7812-1.2536,2.7812-2.7811-1.2518-2.7498-2.7812-2.7498zm65.094,0c-1.5295,0-2.7812,1.2223-2.7812,2.7498s1.2518,2.7811,2.7812,2.7811c1.5295,0,2.7812-1.2536,2.7812-2.7811s-1.2518-2.7498-2.7812-2.7498zm-60.125,0.344c0.35844,0.73095,0.59375,1.5372,0.59375,2.4061,0,0.87594-0.2293,1.7014-0.59375,2.4373,13.471-0.28298,18.156-1.6671,18.156-2.4061,0-0.74195-4.6902-2.1544-18.156-2.4373zm65.094,0c0.35744,0.73095,0.5625,1.5372,0.5625,2.4061,0,0.87594-0.20306,1.7014-0.5625,2.4373,13.471-0.283,18.156-1.667,18.156-2.406,0-0.742-4.69-2.154-18.156-2.437zm-74.656,5.468c-6.523,11.842-7.675,16.627-7.0312,16.999,0.644,0.371,4.2152-3.01,11.219-14.562-1.7502-0.135-3.2694-1.056-4.1875-2.437zm65.062,0c-6.524,11.842-7.675,16.623-7.031,16.999,0.643,0.37,4.216-3.007,11.219-14.562-1.752-0.135-3.27-1.056-4.188-2.437zm-57.688,2.5311c-2.15,3.6138-3.9764,6.4613-5.5312,8.7182l-0.0308,25.78h5.5312l0.03125-34.498zm65.094,0c-2.1496,3.6137-4.0086,6.4613-5.5625,8.7182v25.78h5.5312l0.03125-34.498z"/>
<path id="fog" d="M51.312,21.875c-5.183,0-9.974,1.68-13.874,4.5h27.687c-3.879-2.82-8.642-4.5-13.813-4.5zm-18.312,8.625c-1.135,1.375-2.102,2.891-2.906,4.5h42.312c-0.806-1.614-1.771-3.121-2.906-4.5h-36.5zm-4.5,8.625c-0.41,1.451-0.686,2.95-0.812,4.5h63.718c-2.932-1.897-6.403-3-10.156-3-2.34,0-4.568,0.47-6.625,1.25-0.15-0.948-0.368-1.843-0.625-2.75h-45.5zm-7.438,8.625c-2.041,1.037-3.774,2.58-5,4.5h82.532c-0.668-1.626-1.551-3.141-2.625-4.5h-74.907zm-6.718,8.625c-0.192,0.879-0.282,1.814-0.282,2.75,0,0.087,0.032,0.163,0.032,0.25-1.008-0.302-2.054-0.531-3.156-0.531-2.3633,0-4.5566,0.758-6.3442,2.031h95.344c0.039-0.499,0.062-0.991,0.062-1.5,0-1.025-0.092-2.02-0.25-3h-85.406zm-13.25,8.625c-0.66557,1.366-1.0531,2.889-1.0938,4.5h97.031c0.893-1.385,1.589-2.896,2.094-4.5h-98.031zm-0.25005,8.625c1.6598,3.194,5.5614,4.5,10.094,4.5h70.312c4.652,0,8.91-1.698,12.188-4.5h-92.594z"/>
<path id="cloudy" d="m81.245,40.626c-2.34,0-4.558,0.484-6.615,1.264-1.788-11.321-11.508-20.013-23.326-20.013-13.095,0-23.702,10.608-23.702,23.696,0,0.296,0.081,0.571,0.094,0.867-0.296-0.02-0.578-0.087-0.874-0.087-7.045,0-12.759,5.714-12.759,12.759,0,0.087,0.027,0.168,0.027,0.255-1.008-0.302-2.05-0.518-3.153-0.518-6.043,0-10.937,4.901-10.937,10.938,0,6.043,4.894,8.335,10.937,8.335h70.308c10.358,0,18.755-8.389,18.755-18.748s-8.396-18.748-18.755-18.748z"/>
<path id="partly-cloudy-day" d="M33.469,15v11.938h3.125v-11.938h-3.125zm-13.813,3.406l-2.656,1.656,6.312,10.126,2.657-1.657-6.313-10.125zm30.938,0.313l-4.719,8.531c-2.986,0.663-5.776,1.865-8.25,3.5-0.847-0.119-1.715-0.188-2.594-0.188-10.675,0-19.312,8.695-19.312,19.407,0,1.947,0.305,3.825,0.843,5.593-0.978,1.235-1.775,2.642-2.312,4.157l-0.688-1.063-10.062,6.344,0.3438,0.562c-2.3766,2.331-3.8438,5.561-3.8438,9.126,0,3.52,1.6295,6.439,4.0938,8.093,2.4642,1.654,5.5401,2.219,8.7182,2.219h20.469,3.125,9.125,17.844,16.375c11.15,0,20.25-9.098,20.25-20.25s-9.099-20.219-20.25-20.219c-1.607,0-3.124,0.264-4.594,0.625-2.866-10.607-12.411-18.5-23.906-18.5-0.499,0-0.977,0.034-1.469,0.063l3.563-6.469-2.75-1.531zm-44.532,11.375l-1.5313,2.75,10.407,5.781,1.5-2.75-10.376-5.781zm45.188,1.344c10.088,0,18.319,7.377,19.844,17.031l0.468,2.906,2.75-1.031c1.734-0.658,3.538-1.063,5.438-1.063,8.58,0,15.5,6.89,15.5,15.469s-6.921,15.5-15.5,15.5h-16.375-17.844-32.719c-2.576,0-4.757-0.53-6.062-1.406s-2-1.922-2-4.156c0-4.463,3.5946-8.032,8.062-8.032,0.74,0,1.486,0.128,2.313,0.375l3.063,0.938v-3.219c0-0.288,0.007-0.458,0-0.5,0.133-5.302,4.412-9.5,9.75-9.5-0.078,0,0.118,0.026,0.656,0.062l2.656,0.188-0.125-2.656c-0.029-0.651-0.063-0.871-0.063-0.719,0-11.178,9.002-20.187,20.188-20.187zm-51.25,16.062v3.125h11.906v-3.125h-11.906z"/>
<path id="partly-cloudy-night" d="M33.469,15v11.938h3.125v-11.938h-3.125zm-13.813,3.406l-2.656,1.656,6.312,10.126,2.657-1.657-6.313-10.125zm30.938,0.313l-4.719,8.531c-2.986,0.663-5.776,1.865-8.25,3.5-0.847-0.119-1.715-0.188-2.594-0.188-10.675,0-19.312,8.695-19.312,19.407,0,1.947,0.305,3.825,0.843,5.593-0.978,1.235-1.775,2.642-2.312,4.157l-0.688-1.063-10.062,6.344,0.3438,0.562c-2.3766,2.331-3.8438,5.561-3.8438,9.126,0,3.52,1.6295,6.439,4.0938,8.093,2.4642,1.654,5.5401,2.219,8.7182,2.219h20.469,3.125,9.125,17.844,16.375c11.15,0,20.25-9.098,20.25-20.25s-9.099-20.219-20.25-20.219c-1.607,0-3.124,0.264-4.594,0.625-2.866-10.607-12.411-18.5-23.906-18.5-0.499,0-0.977,0.034-1.469,0.063l3.563-6.469-2.75-1.531zm-44.532,11.375l-1.5313,2.75,10.407,5.781,1.5-2.75-10.376-5.781zm45.188,1.344c10.088,0,18.319,7.377,19.844,17.031l0.468,2.906,2.75-1.031c1.734-0.658,3.538-1.063,5.438-1.063,8.58,0,15.5,6.89,15.5,15.469s-6.921,15.5-15.5,15.5h-16.375-17.844-32.719c-2.576,0-4.757-0.53-6.062-1.406s-2-1.922-2-4.156c0-4.463,3.5946-8.032,8.062-8.032,0.74,0,1.486,0.128,2.313,0.375l3.063,0.938v-3.219c0-0.288,0.007-0.458,0-0.5,0.133-5.302,4.412-9.5,9.75-9.5-0.078,0,0.118,0.026,0.656,0.062l2.656,0.188-0.125-2.656c-0.029-0.651-0.063-0.871-0.063-0.719,0-11.178,9.002-20.187,20.188-20.187zm-51.25,16.062v3.125h11.906v-3.125h-11.906z"/>
<path id="hail" d="M51.312,4.6875c-13.094,0-23.718,10.6-23.718,23.688,0,0.296,0.08,0.579,0.094,0.875-0.296-0.02-0.58-0.094-0.876-0.094-7.044,0-12.75,5.705-12.75,12.75,0,0.087,0.032,0.163,0.032,0.25-1.008-0.302-2.054-0.5-3.156-0.5-6.0435,0-10.938,4.901-10.938,10.938,0,6.043,4.8945,8.344,10.938,8.344h70.312c10.358,0,18.75-8.392,18.75-18.75,0-10.36-8.391-18.75-18.75-18.75-2.34,0-4.568,0.47-6.625,1.25-1.788-11.322-11.495-20-23.313-20zm-9.562,59.594c-0.973,0.049-1.864,0.653-2.219,1.625-0.473,1.297,0.204,2.745,1.5,3.219,1.297,0.473,2.745-0.203,3.219-1.5s-0.203-2.745-1.5-3.219c-0.324-0.118-0.676-0.141-1-0.125zm34.438,0c-0.973,0.049-1.864,0.653-2.219,1.625-0.474,1.297,0.203,2.745,1.5,3.219,1.296,0.473,2.714-0.203,3.187-1.5,0.474-1.297-0.172-2.745-1.468-3.219-0.325-0.118-0.676-0.141-1-0.125zm-52.126,1c-0.778,0.039-1.497,0.535-1.781,1.313-0.379,1.037,0.182,2.183,1.219,2.562s2.184-0.181,2.562-1.218c0.379-1.038-0.181-2.184-1.218-2.563-0.26-0.095-0.522-0.107-0.782-0.094zm34.438,0c-0.778,0.039-1.497,0.535-1.781,1.313-0.379,1.037,0.15,2.183,1.187,2.562,1.038,0.379,2.184-0.181,2.563-1.218,0.379-1.038-0.151-2.184-1.188-2.563-0.259-0.095-0.522-0.107-0.781-0.094zm-19.125,5.5c-0.973,0.049-1.864,0.684-2.219,1.657-0.473,1.296,0.204,2.713,1.5,3.187,1.297,0.473,2.714-0.203,3.188-1.5,0.473-1.297-0.172-2.714-1.469-3.187-0.324-0.119-0.676-0.173-1-0.157zm34.437,0c-0.972,0.049-1.863,0.684-2.218,1.657-0.474,1.296,0.203,2.713,1.5,3.187,1.296,0.473,2.714-0.203,3.187-1.5,0.474-1.297-0.203-2.714-1.5-3.187-0.324-0.119-0.644-0.173-0.969-0.157zm-52.124,1c-0.779,0.039-1.498,0.535-1.782,1.313-0.379,1.037,0.151,2.183,1.188,2.562s2.215-0.15,2.594-1.187c0.378-1.038-0.182-2.184-1.219-2.563-0.26-0.094-0.522-0.138-0.781-0.125zm34.437,0c-0.778,0.039-1.497,0.535-1.781,1.313-0.379,1.037,0.15,2.183,1.187,2.562,1.038,0.379,2.184-0.15,2.563-1.187,0.379-1.038-0.151-2.184-1.188-2.563-0.259-0.094-0.522-0.138-0.781-0.125zm-19.125,5.5c-0.973,0.049-1.864,0.684-2.219,1.657-0.473,1.296,0.204,2.745,1.5,3.218,1.297,0.474,2.714-0.203,3.188-1.5,0.473-1.296-0.172-2.745-1.469-3.218-0.324-0.119-0.676-0.173-1-0.157zm34.438,0c-0.973,0.049-1.864,0.684-2.219,1.657-0.474,1.296,0.172,2.745,1.469,3.218,1.296,0.474,2.745-0.203,3.218-1.5,0.474-1.296-0.203-2.745-1.5-3.218-0.324-0.119-0.644-0.173-0.968-0.157zm-52.126,1c-0.778,0.039-1.497,0.535-1.781,1.313-0.379,1.037,0.151,2.215,1.188,2.594,1.037,0.378,2.183-0.182,2.562-1.219,0.379-1.038-0.15-2.184-1.187-2.563-0.26-0.094-0.522-0.138-0.782-0.125zm34.438,0c-0.778,0.039-1.497,0.535-1.781,1.313-0.379,1.037,0.15,2.215,1.187,2.594,1.038,0.378,2.184-0.182,2.563-1.219,0.379-1.038-0.151-2.184-1.188-2.563-0.259-0.094-0.522-0.138-0.781-0.125zm-19.125,5.531c-0.973,0.049-1.864,0.653-2.219,1.626-0.473,1.296,0.204,2.745,1.5,3.218,1.297,0.474,2.714-0.203,3.188-1.5,0.473-1.296-0.204-2.714-1.5-3.187-0.324-0.119-0.645-0.173-0.969-0.157zm34.437,0c-0.972,0.049-1.863,0.653-2.218,1.626-0.474,1.296,0.172,2.745,1.468,3.218,1.297,0.474,2.746-0.203,3.219-1.5,0.474-1.296-0.203-2.714-1.5-3.187-0.324-0.119-0.644-0.173-0.969-0.157zm-52.124,1c-0.779,0.039-1.498,0.535-1.782,1.313-0.379,1.037,0.151,2.184,1.188,2.563,1.037,0.378,2.183-0.151,2.562-1.188s-0.15-2.184-1.187-2.562c-0.26-0.095-0.522-0.138-0.781-0.126zm34.437,0c-0.778,0.039-1.497,0.535-1.781,1.313-0.379,1.037,0.15,2.184,1.187,2.563,1.038,0.378,2.184-0.151,2.563-1.188s-0.151-2.184-1.188-2.562c-0.259-0.095-0.522-0.138-0.781-0.126zm-24.844,2.219c-1.38,0-2.5,1.12-2.5,2.5,0,1.381,1.12,2.5,2.5,2.5,1.381,0,2.5-1.119,2.5-2.5,0-1.38-1.119-2.5-2.5-2.5zm34.438,0c-1.381,0-2.5,1.12-2.5,2.5,0,1.381,1.119,2.5,2.5,2.5,1.38,0,2.5-1.119,2.5-2.5,0-1.38-1.12-2.5-2.5-2.5zm-52.156,1c-1.1046,0-2,0.896-2,2,0,1.105,0.8954,2,2,2s1.9995-0.895,1.9995-2c0-1.104-0.8949-2-1.9995-2zm34.438,0c-1.105,0-2,0.896-2,2,0,1.105,0.895,2,2,2s2-0.895,2-2c0-1.104-0.895-2-2-2zm-11,2.281c-0.973,0.049-1.864,0.684-2.219,1.657-0.473,1.296,0.172,2.714,1.469,3.187,1.297,0.474,2.745-0.172,3.219-1.468,0.473-1.297-0.204-2.746-1.5-3.219-0.324-0.119-0.645-0.173-0.969-0.157zm34.438,0c-0.973,0.049-1.864,0.684-2.219,1.657-0.474,1.296,0.172,2.714,1.469,3.187,1.296,0.474,2.745-0.172,3.218-1.468,0.474-1.297-0.203-2.746-1.5-3.219-0.324-0.119-0.644-0.173-0.968-0.157zm-52.126,1c-0.778,0.039-1.497,0.535-1.781,1.313-0.379,1.037,0.151,2.184,1.188,2.563,1.037,0.378,2.183-0.151,2.562-1.188s-0.15-2.184-1.187-2.562c-0.26-0.095-0.522-0.138-0.782-0.126zm34.438,0c-0.778,0.039-1.497,0.535-1.781,1.313-0.379,1.037,0.15,2.184,1.187,2.563,1.038,0.378,2.184-0.151,2.563-1.188s-0.151-2.184-1.188-2.562c-0.259-0.095-0.522-0.138-0.781-0.126z"/>
<path id="thunderstorm" d="M51.312,3.5625c-13.094,0-23.718,10.63-23.718,23.718,0,0.296,0.08,0.548,0.094,0.844-0.296-0.02-0.58-0.063-0.876-0.063-7.044,0-12.75,5.706-12.75,12.75,0,0.088,0.032,0.164,0.032,0.25-1.008-0.302-2.054-0.5-3.156-0.5-6.0435,0-10.938,4.901-10.938,10.938,0,6.043,4.8945,8.312,10.938,8.312h70.312c10.358,0,18.75-8.39,18.75-18.75,0-10.358-8.391-18.75-18.75-18.75-2.34,0-4.568,0.502-6.625,1.282-1.788-11.321-11.495-20.032-23.313-20.032zm-4.593,58.656l-11.969,20.531h8.562l-6.843,13.688,20.531-20.532h-10.281l8.562-13.687h-8.562zm-23.25,3.781l-9.031,24.812,1.937,0.719,9.313-25.531h-2.219zm10.343,0l-9.031,24.812,1.938,0.719,9.281-25.531h-2.188zm30.969,0l-9.031,24.812,1.938,0.719,9.281-25.531h-2.188zm10.313,0l-9,24.812,1.937,0.719,9.281-25.531h-2.218z"/>
<path id="tornado" d="M50,0c-20.898,0-40.913,4.784-46.875,9.375,2.805,6.747,33.855,9.375,46.875,9.375s43.548-3.544,46.875-9.375c-3.864-5.116-23.854-9.375-46.875-9.375zm-46.844,12.5c-0.049,0.195-1.661,18.125,28.125,28.125,20.639,6.924,9.375,18.75,9.375,18.75s-22.412,21.25-3.156,28.125c12.062,4.292,10.92,10.118,9.375,12.5,11.7-14.721-21.6-17.334,15.656-34.375,19.116-8.754,21.485-13.846,15.594-21.875-7.717-10.55,17.12-14.778,18.75-31.25-7.369,5.788-26.346,9.033-46.875,9.375-23.121-0.378-41.557-1.987-46.844-9.375z"/>
</defs>

<g transform="scale(3.25) translate(5.055 10.166)">
<use xlink:href="#ICON_ONE"/>
</g>

<g transform="scale(1.2) translate(34.167 399.725)">
<use xlink:href="#ICON_TWO"/>
</g>
<g transform="scale(1.2) translate(200 399.725)">
<use xlink:href="#ICON_THREE"/>
</g>
<g transform="scale(1.2) translate(365.833 399.725)">
<use xlink:href="#ICON_FOUR"/>
</g>

<g font-family="DejaVu Sans">
	<text style="text-anchor:middle;" font-size="35px" y="47.256058" x="76.039063">Today:</text>
<text style="text-anchor:middle;" font-size="35px" y="81.70689" x="446.26932">High:</text>
<text style="text-anchor:end;" font-size="100px" y="169.20592" x="526.72095">HIGH_ONE</text>
<text style="text-anchor:middle;" font-size="64px" y="142.48717" x="548.30981">°C</text>
<text style="text-anchor:middle;" font-size="35px" y="235.13895" x="440.80057">Low:</text>
<text style="text-anchor:end;" font-size="100px" y="319.8533" x="526.23267">LOW_ONE</text>
<text style="text-anchor:middle;" font-size="64px" y="293.13455" x="548.30981">°C</text>


<text style="text-anchor:start;" font-size="20px" font-style = "italic" y="370" x="25">TODAY_SUMMARY</text>


<text style="text-anchor:middle;" font-size="32px" y="465.16922" x="102.92969">Tomorrow:</text>
<text style="text-anchor:middle;" font-size="20px" y="635.68347" x="74.958336">High:</text>
<text style="text-anchor:end;" font-size="58px" y="686.3255" x="116.05887">HIGH_TWO</text>
<text style="text-anchor:middle;" font-size="37px" y="670.86145" x="134.01662">°C</text>
<text style="text-anchor:middle;" font-size="20px" y="724.48578" x="71.906197">Low:</text>
<text style="text-anchor:end;" font-size="58px" y="773.51617" x="116.00232">LOW_TWO</text>
<text style="text-anchor:middle;" font-size="37px" y="758.05206" x="134.01663">°C</text>

<text style="text-anchor:middle;" font-size="32px" y="466.15359" x="300.3125">DAY_THREE:</text>
<text style="text-anchor:middle;" font-size="20px" y="635.68347" x="273.95834">High:</text>
<text style="text-anchor:end;" font-size="58px" y="686.3255" x="314.15454">HIGH_THREE</text>
<text style="text-anchor:middle;" font-size="37px" y="670.86145" x="333.01663">°C</text>
<text style="text-anchor:middle;" font-size="20px" y="724.48578" x="270.90619">Low:</text>
<text style="text-anchor:end;" font-size="58px" y="773.51617" x="314.08383">LOW_THREE</text>
<text style="text-anchor:middle;" font-size="37px" y="758.05206" x="333.0166">°C</text>

<text style="text-anchor:middle;" font-size="32px" y="466.15359" x="499.82813">DAY_FOUR:</text>
<text style="text-anchor:middle;" font-size="20px" y="635.68347" x="472.95834">High:</text>
<text style="text-anchor:end;" font-size="58px" y="686.3255" x="513.30994">HIGH_FOUR</text>
<text style="text-anchor:middle;" font-size="37px" y="670.86145" x="532.0166">°C</text>
<text style="text-anchor:middle;" font-size="20px" y="724.48578" x="469.90619">Low:</text>
<text style="text-anchor:end;" font-size="58px" y="773.51617" x="513.73383">LOW_FOUR</text>
<text style="text-anchor:middle;" font-size="37px" y="758.05206" x="532.0166">°C</text>
</g>

<path d="m199,447.35,0,321.5,3,0,0-321.5-3,0z"/>
<path d="m398,447.35,0,321.5,3,0,0-321.5-3,0z"/>

<text style="text-anchor:end;" font-size="20px" y="800" x="600">DATE_TIME</text>

</svg>
